G04 #@! TF.FileFunction,Soldermask,Top*
%FSLAX46Y46*%
G04 Gerber Fmt 4.6, Leading zero omitted, Abs format (unit mm)*
G04 Created by KiCad (PCBNEW 4.0.6) date 02/17/18 19:20:01*
%MOMM*%
%LPD*%
G01*
G04 APERTURE LIST*
%ADD10C,0.100000*%
%ADD11R,1.650000X1.900000*%
%ADD12C,2.900000*%
%ADD13R,2.051000X1.400000*%
%ADD14R,2.152600X2.152600*%
%ADD15C,2.152600*%
G04 APERTURE END LIST*
D10*
D11*
X149225000Y-65425000D03*
X149225000Y-67925000D03*
X168275000Y-65425000D03*
X168275000Y-67925000D03*
X187325000Y-65425000D03*
X187325000Y-67925000D03*
X206375000Y-67925000D03*
X206375000Y-65425000D03*
X149225000Y-85070000D03*
X149225000Y-82570000D03*
X168275000Y-85070000D03*
X168275000Y-82570000D03*
X187325000Y-85070000D03*
X187325000Y-82570000D03*
X206375000Y-85070000D03*
X206375000Y-82570000D03*
X149225000Y-103525000D03*
X149225000Y-106025000D03*
X168275000Y-103525000D03*
X168275000Y-106025000D03*
X187325000Y-103525000D03*
X187325000Y-106025000D03*
X206375000Y-103525000D03*
X206375000Y-106025000D03*
X149225000Y-120670000D03*
X149225000Y-123170000D03*
X168275000Y-120670000D03*
X168275000Y-123170000D03*
X187325000Y-120670000D03*
X187325000Y-123170000D03*
X206375000Y-120670000D03*
X206375000Y-123170000D03*
X149225000Y-141625000D03*
X149225000Y-144125000D03*
X168275000Y-141625000D03*
X168275000Y-144125000D03*
X187325000Y-141625000D03*
X187325000Y-144125000D03*
X206375000Y-141625000D03*
X206375000Y-144125000D03*
D12*
X136700453Y-59500046D02*
X135889547Y-60959954D01*
X142239724Y-58420672D02*
X142200276Y-58999328D01*
X155750453Y-59500046D02*
X154939547Y-60959954D01*
X161289724Y-58420672D02*
X161250276Y-58999328D01*
X174800453Y-59500046D02*
X173989547Y-60959954D01*
X180339724Y-58420672D02*
X180300276Y-58999328D01*
X193850453Y-59500046D02*
X193039547Y-60959954D01*
X199389724Y-58420672D02*
X199350276Y-58999328D01*
X136700453Y-78550046D02*
X135889547Y-80009954D01*
X142239724Y-77470672D02*
X142200276Y-78049328D01*
X155750453Y-78550046D02*
X154939547Y-80009954D01*
X161289724Y-77470672D02*
X161250276Y-78049328D01*
X174800453Y-78550046D02*
X173989547Y-80009954D01*
X180339724Y-77470672D02*
X180300276Y-78049328D01*
X193850453Y-78550046D02*
X193039547Y-80009954D01*
X199389724Y-77470672D02*
X199350276Y-78049328D01*
X136700453Y-97600046D02*
X135889547Y-99059954D01*
X142239724Y-96520672D02*
X142200276Y-97099328D01*
X155750453Y-97600046D02*
X154939547Y-99059954D01*
X161289724Y-96520672D02*
X161250276Y-97099328D01*
X174800453Y-97600046D02*
X173989547Y-99059954D01*
X180339724Y-96520672D02*
X180300276Y-97099328D01*
X193850453Y-97600046D02*
X193039547Y-99059954D01*
X199389724Y-96520672D02*
X199350276Y-97099328D01*
X136700453Y-116650046D02*
X135889547Y-118109954D01*
X142239724Y-115570672D02*
X142200276Y-116149328D01*
X155750453Y-116650046D02*
X154939547Y-118109954D01*
X161289724Y-115570672D02*
X161250276Y-116149328D01*
X174800453Y-116650046D02*
X173989547Y-118109954D01*
X180339724Y-115570672D02*
X180300276Y-116149328D01*
X193850453Y-116650046D02*
X193039547Y-118109954D01*
X199389724Y-115570672D02*
X199350276Y-116149328D01*
X136700453Y-135700046D02*
X135889547Y-137159954D01*
X142239724Y-134620672D02*
X142200276Y-135199328D01*
X155750453Y-135700046D02*
X154939547Y-137159954D01*
X161289724Y-134620672D02*
X161250276Y-135199328D01*
X174800453Y-135700046D02*
X173989547Y-137159954D01*
X180339724Y-134620672D02*
X180300276Y-135199328D01*
X193850453Y-135700046D02*
X193039547Y-137159954D01*
X199389724Y-134620672D02*
X199350276Y-135199328D01*
D13*
X137123000Y-68377000D03*
X142277000Y-68377000D03*
X142277000Y-71577000D03*
X137123000Y-71577000D03*
X156173000Y-68377000D03*
X161327000Y-68377000D03*
X161327000Y-71577000D03*
X156173000Y-71577000D03*
X175223000Y-68377000D03*
X180377000Y-68377000D03*
X180377000Y-71577000D03*
X175223000Y-71577000D03*
X194273000Y-68377000D03*
X199427000Y-68377000D03*
X199427000Y-71577000D03*
X194273000Y-71577000D03*
X137123000Y-87427000D03*
X142277000Y-87427000D03*
X142277000Y-90627000D03*
X137123000Y-90627000D03*
X156173000Y-87427000D03*
X161327000Y-87427000D03*
X161327000Y-90627000D03*
X156173000Y-90627000D03*
X175223000Y-87427000D03*
X180377000Y-87427000D03*
X180377000Y-90627000D03*
X175223000Y-90627000D03*
X194273000Y-87427000D03*
X199427000Y-87427000D03*
X199427000Y-90627000D03*
X194273000Y-90627000D03*
X137123000Y-106350000D03*
X142277000Y-106350000D03*
X142277000Y-109550000D03*
X137123000Y-109550000D03*
X156173000Y-106350000D03*
X161327000Y-106350000D03*
X161327000Y-109550000D03*
X156173000Y-109550000D03*
X175223000Y-106350000D03*
X180377000Y-106350000D03*
X180377000Y-109550000D03*
X175223000Y-109550000D03*
X194400000Y-106477000D03*
X199554000Y-106477000D03*
X199554000Y-109677000D03*
X194400000Y-109677000D03*
X137123000Y-125400000D03*
X142277000Y-125400000D03*
X142277000Y-128600000D03*
X137123000Y-128600000D03*
X156173000Y-125400000D03*
X161327000Y-125400000D03*
X161327000Y-128600000D03*
X156173000Y-128600000D03*
X175223000Y-125527000D03*
X180377000Y-125527000D03*
X180377000Y-128727000D03*
X175223000Y-128727000D03*
X194273000Y-125527000D03*
X199427000Y-125527000D03*
X199427000Y-128727000D03*
X194273000Y-128727000D03*
X137123000Y-144450000D03*
X142277000Y-144450000D03*
X142277000Y-147650000D03*
X137123000Y-147650000D03*
X156173000Y-144450000D03*
X161327000Y-144450000D03*
X161327000Y-147650000D03*
X156173000Y-147650000D03*
X175223000Y-144577000D03*
X180377000Y-144577000D03*
X180377000Y-147777000D03*
X175223000Y-147777000D03*
X194273000Y-144577000D03*
X199427000Y-144577000D03*
X199427000Y-147777000D03*
X194273000Y-147777000D03*
D14*
X153924000Y-50038000D03*
D15*
X156464000Y-50038000D03*
X159004000Y-50038000D03*
X161544000Y-50038000D03*
X164084000Y-50038000D03*
X166624000Y-50038000D03*
X169164000Y-50038000D03*
X171704000Y-50038000D03*
X174244000Y-50038000D03*
X176784000Y-50038000D03*
X179324000Y-50038000D03*
X181864000Y-50038000D03*
X181864000Y-47498000D03*
X181864000Y-44958000D03*
X181864000Y-42418000D03*
X181864000Y-39878000D03*
X181864000Y-37338000D03*
X181864000Y-34798000D03*
X179324000Y-34798000D03*
X176784000Y-34798000D03*
X174244000Y-34798000D03*
X171704000Y-34798000D03*
X169164000Y-34798000D03*
X166624000Y-34798000D03*
X164084000Y-34798000D03*
X161544000Y-34798000D03*
X159004000Y-34798000D03*
X156464000Y-34798000D03*
X153924000Y-34798000D03*
X164084000Y-37338000D03*
X164084000Y-47498000D03*
M02*
