G04 #@! TF.FileFunction,Legend,Bot*
%FSLAX46Y46*%
G04 Gerber Fmt 4.6, Leading zero omitted, Abs format (unit mm)*
G04 Created by KiCad (PCBNEW 4.0.6) date 02/17/18 19:20:01*
%MOMM*%
%LPD*%
G01*
G04 APERTURE LIST*
%ADD10C,0.100000*%
%ADD11C,0.200000*%
G04 APERTURE END LIST*
D10*
X157290300Y-50038000D02*
G75*
G03X157290300Y-50038000I-826300J0D01*
G01*
X159830300Y-50038000D02*
G75*
G03X159830300Y-50038000I-826300J0D01*
G01*
X162370300Y-50038000D02*
G75*
G03X162370300Y-50038000I-826300J0D01*
G01*
X164910300Y-50038000D02*
G75*
G03X164910300Y-50038000I-826300J0D01*
G01*
X167450300Y-50038000D02*
G75*
G03X167450300Y-50038000I-826300J0D01*
G01*
X169990300Y-50038000D02*
G75*
G03X169990300Y-50038000I-826300J0D01*
G01*
X172530300Y-50038000D02*
G75*
G03X172530300Y-50038000I-826300J0D01*
G01*
X175070300Y-50038000D02*
G75*
G03X175070300Y-50038000I-826300J0D01*
G01*
X177610300Y-50038000D02*
G75*
G03X177610300Y-50038000I-826300J0D01*
G01*
X180150300Y-50038000D02*
G75*
G03X180150300Y-50038000I-826300J0D01*
G01*
X182690300Y-50038000D02*
G75*
G03X182690300Y-50038000I-826300J0D01*
G01*
X182690300Y-47498000D02*
G75*
G03X182690300Y-47498000I-826300J0D01*
G01*
X182690300Y-44958000D02*
G75*
G03X182690300Y-44958000I-826300J0D01*
G01*
X182690300Y-42418000D02*
G75*
G03X182690300Y-42418000I-826300J0D01*
G01*
X182690300Y-39878000D02*
G75*
G03X182690300Y-39878000I-826300J0D01*
G01*
X182690300Y-37338000D02*
G75*
G03X182690300Y-37338000I-826300J0D01*
G01*
X182690300Y-34798000D02*
G75*
G03X182690300Y-34798000I-826300J0D01*
G01*
X180150300Y-34798000D02*
G75*
G03X180150300Y-34798000I-826300J0D01*
G01*
X177610300Y-34798000D02*
G75*
G03X177610300Y-34798000I-826300J0D01*
G01*
X175070300Y-34798000D02*
G75*
G03X175070300Y-34798000I-826300J0D01*
G01*
X172530300Y-34798000D02*
G75*
G03X172530300Y-34798000I-826300J0D01*
G01*
X169990300Y-34798000D02*
G75*
G03X169990300Y-34798000I-826300J0D01*
G01*
X167450300Y-34798000D02*
G75*
G03X167450300Y-34798000I-826300J0D01*
G01*
X164910300Y-34798000D02*
G75*
G03X164910300Y-34798000I-826300J0D01*
G01*
X162370300Y-34798000D02*
G75*
G03X162370300Y-34798000I-826300J0D01*
G01*
X159830300Y-34798000D02*
G75*
G03X159830300Y-34798000I-826300J0D01*
G01*
X157290300Y-34798000D02*
G75*
G03X157290300Y-34798000I-826300J0D01*
G01*
X154750300Y-34798000D02*
G75*
G03X154750300Y-34798000I-826300J0D01*
G01*
X164910300Y-37338000D02*
G75*
G03X164910300Y-37338000I-826300J0D01*
G01*
X164910300Y-47498000D02*
G75*
G03X164910300Y-47498000I-826300J0D01*
G01*
D11*
X140438095Y-68270381D02*
X140438095Y-67270381D01*
X139866666Y-68270381D02*
X140295238Y-67698952D01*
X139866666Y-67270381D02*
X140438095Y-67841810D01*
X138914285Y-68270381D02*
X139485714Y-68270381D01*
X139200000Y-68270381D02*
X139200000Y-67270381D01*
X139295238Y-67413238D01*
X139390476Y-67508476D01*
X139485714Y-67556095D01*
X159488095Y-68270381D02*
X159488095Y-67270381D01*
X158916666Y-68270381D02*
X159345238Y-67698952D01*
X158916666Y-67270381D02*
X159488095Y-67841810D01*
X158535714Y-67365619D02*
X158488095Y-67318000D01*
X158392857Y-67270381D01*
X158154761Y-67270381D01*
X158059523Y-67318000D01*
X158011904Y-67365619D01*
X157964285Y-67460857D01*
X157964285Y-67556095D01*
X158011904Y-67698952D01*
X158583333Y-68270381D01*
X157964285Y-68270381D01*
X178538095Y-68270381D02*
X178538095Y-67270381D01*
X177966666Y-68270381D02*
X178395238Y-67698952D01*
X177966666Y-67270381D02*
X178538095Y-67841810D01*
X177633333Y-67270381D02*
X177014285Y-67270381D01*
X177347619Y-67651333D01*
X177204761Y-67651333D01*
X177109523Y-67698952D01*
X177061904Y-67746571D01*
X177014285Y-67841810D01*
X177014285Y-68079905D01*
X177061904Y-68175143D01*
X177109523Y-68222762D01*
X177204761Y-68270381D01*
X177490476Y-68270381D01*
X177585714Y-68222762D01*
X177633333Y-68175143D01*
X197588095Y-68270381D02*
X197588095Y-67270381D01*
X197016666Y-68270381D02*
X197445238Y-67698952D01*
X197016666Y-67270381D02*
X197588095Y-67841810D01*
X196159523Y-67603714D02*
X196159523Y-68270381D01*
X196397619Y-67222762D02*
X196635714Y-67937048D01*
X196016666Y-67937048D01*
X140438095Y-87320381D02*
X140438095Y-86320381D01*
X139866666Y-87320381D02*
X140295238Y-86748952D01*
X139866666Y-86320381D02*
X140438095Y-86891810D01*
X138961904Y-86320381D02*
X139438095Y-86320381D01*
X139485714Y-86796571D01*
X139438095Y-86748952D01*
X139342857Y-86701333D01*
X139104761Y-86701333D01*
X139009523Y-86748952D01*
X138961904Y-86796571D01*
X138914285Y-86891810D01*
X138914285Y-87129905D01*
X138961904Y-87225143D01*
X139009523Y-87272762D01*
X139104761Y-87320381D01*
X139342857Y-87320381D01*
X139438095Y-87272762D01*
X139485714Y-87225143D01*
X159488095Y-87320381D02*
X159488095Y-86320381D01*
X158916666Y-87320381D02*
X159345238Y-86748952D01*
X158916666Y-86320381D02*
X159488095Y-86891810D01*
X158059523Y-86320381D02*
X158250000Y-86320381D01*
X158345238Y-86368000D01*
X158392857Y-86415619D01*
X158488095Y-86558476D01*
X158535714Y-86748952D01*
X158535714Y-87129905D01*
X158488095Y-87225143D01*
X158440476Y-87272762D01*
X158345238Y-87320381D01*
X158154761Y-87320381D01*
X158059523Y-87272762D01*
X158011904Y-87225143D01*
X157964285Y-87129905D01*
X157964285Y-86891810D01*
X158011904Y-86796571D01*
X158059523Y-86748952D01*
X158154761Y-86701333D01*
X158345238Y-86701333D01*
X158440476Y-86748952D01*
X158488095Y-86796571D01*
X158535714Y-86891810D01*
X178538095Y-87320381D02*
X178538095Y-86320381D01*
X177966666Y-87320381D02*
X178395238Y-86748952D01*
X177966666Y-86320381D02*
X178538095Y-86891810D01*
X177633333Y-86320381D02*
X176966666Y-86320381D01*
X177395238Y-87320381D01*
X197588095Y-87320381D02*
X197588095Y-86320381D01*
X197016666Y-87320381D02*
X197445238Y-86748952D01*
X197016666Y-86320381D02*
X197588095Y-86891810D01*
X196445238Y-86748952D02*
X196540476Y-86701333D01*
X196588095Y-86653714D01*
X196635714Y-86558476D01*
X196635714Y-86510857D01*
X196588095Y-86415619D01*
X196540476Y-86368000D01*
X196445238Y-86320381D01*
X196254761Y-86320381D01*
X196159523Y-86368000D01*
X196111904Y-86415619D01*
X196064285Y-86510857D01*
X196064285Y-86558476D01*
X196111904Y-86653714D01*
X196159523Y-86701333D01*
X196254761Y-86748952D01*
X196445238Y-86748952D01*
X196540476Y-86796571D01*
X196588095Y-86844190D01*
X196635714Y-86939429D01*
X196635714Y-87129905D01*
X196588095Y-87225143D01*
X196540476Y-87272762D01*
X196445238Y-87320381D01*
X196254761Y-87320381D01*
X196159523Y-87272762D01*
X196111904Y-87225143D01*
X196064285Y-87129905D01*
X196064285Y-86939429D01*
X196111904Y-86844190D01*
X196159523Y-86796571D01*
X196254761Y-86748952D01*
X140438095Y-106370381D02*
X140438095Y-105370381D01*
X139866666Y-106370381D02*
X140295238Y-105798952D01*
X139866666Y-105370381D02*
X140438095Y-105941810D01*
X139390476Y-106370381D02*
X139200000Y-106370381D01*
X139104761Y-106322762D01*
X139057142Y-106275143D01*
X138961904Y-106132286D01*
X138914285Y-105941810D01*
X138914285Y-105560857D01*
X138961904Y-105465619D01*
X139009523Y-105418000D01*
X139104761Y-105370381D01*
X139295238Y-105370381D01*
X139390476Y-105418000D01*
X139438095Y-105465619D01*
X139485714Y-105560857D01*
X139485714Y-105798952D01*
X139438095Y-105894190D01*
X139390476Y-105941810D01*
X139295238Y-105989429D01*
X139104761Y-105989429D01*
X139009523Y-105941810D01*
X138961904Y-105894190D01*
X138914285Y-105798952D01*
X159964286Y-106370381D02*
X159964286Y-105370381D01*
X159392857Y-106370381D02*
X159821429Y-105798952D01*
X159392857Y-105370381D02*
X159964286Y-105941810D01*
X158440476Y-106370381D02*
X159011905Y-106370381D01*
X158726191Y-106370381D02*
X158726191Y-105370381D01*
X158821429Y-105513238D01*
X158916667Y-105608476D01*
X159011905Y-105656095D01*
X157821429Y-105370381D02*
X157726190Y-105370381D01*
X157630952Y-105418000D01*
X157583333Y-105465619D01*
X157535714Y-105560857D01*
X157488095Y-105751333D01*
X157488095Y-105989429D01*
X157535714Y-106179905D01*
X157583333Y-106275143D01*
X157630952Y-106322762D01*
X157726190Y-106370381D01*
X157821429Y-106370381D01*
X157916667Y-106322762D01*
X157964286Y-106275143D01*
X158011905Y-106179905D01*
X158059524Y-105989429D01*
X158059524Y-105751333D01*
X158011905Y-105560857D01*
X157964286Y-105465619D01*
X157916667Y-105418000D01*
X157821429Y-105370381D01*
X179014286Y-106370381D02*
X179014286Y-105370381D01*
X178442857Y-106370381D02*
X178871429Y-105798952D01*
X178442857Y-105370381D02*
X179014286Y-105941810D01*
X177490476Y-106370381D02*
X178061905Y-106370381D01*
X177776191Y-106370381D02*
X177776191Y-105370381D01*
X177871429Y-105513238D01*
X177966667Y-105608476D01*
X178061905Y-105656095D01*
X176538095Y-106370381D02*
X177109524Y-106370381D01*
X176823810Y-106370381D02*
X176823810Y-105370381D01*
X176919048Y-105513238D01*
X177014286Y-105608476D01*
X177109524Y-105656095D01*
X198064286Y-106370381D02*
X198064286Y-105370381D01*
X197492857Y-106370381D02*
X197921429Y-105798952D01*
X197492857Y-105370381D02*
X198064286Y-105941810D01*
X196540476Y-106370381D02*
X197111905Y-106370381D01*
X196826191Y-106370381D02*
X196826191Y-105370381D01*
X196921429Y-105513238D01*
X197016667Y-105608476D01*
X197111905Y-105656095D01*
X196159524Y-105465619D02*
X196111905Y-105418000D01*
X196016667Y-105370381D01*
X195778571Y-105370381D01*
X195683333Y-105418000D01*
X195635714Y-105465619D01*
X195588095Y-105560857D01*
X195588095Y-105656095D01*
X195635714Y-105798952D01*
X196207143Y-106370381D01*
X195588095Y-106370381D01*
X140914286Y-125420381D02*
X140914286Y-124420381D01*
X140342857Y-125420381D02*
X140771429Y-124848952D01*
X140342857Y-124420381D02*
X140914286Y-124991810D01*
X139390476Y-125420381D02*
X139961905Y-125420381D01*
X139676191Y-125420381D02*
X139676191Y-124420381D01*
X139771429Y-124563238D01*
X139866667Y-124658476D01*
X139961905Y-124706095D01*
X139057143Y-124420381D02*
X138438095Y-124420381D01*
X138771429Y-124801333D01*
X138628571Y-124801333D01*
X138533333Y-124848952D01*
X138485714Y-124896571D01*
X138438095Y-124991810D01*
X138438095Y-125229905D01*
X138485714Y-125325143D01*
X138533333Y-125372762D01*
X138628571Y-125420381D01*
X138914286Y-125420381D01*
X139009524Y-125372762D01*
X139057143Y-125325143D01*
X159964286Y-125420381D02*
X159964286Y-124420381D01*
X159392857Y-125420381D02*
X159821429Y-124848952D01*
X159392857Y-124420381D02*
X159964286Y-124991810D01*
X158440476Y-125420381D02*
X159011905Y-125420381D01*
X158726191Y-125420381D02*
X158726191Y-124420381D01*
X158821429Y-124563238D01*
X158916667Y-124658476D01*
X159011905Y-124706095D01*
X157583333Y-124753714D02*
X157583333Y-125420381D01*
X157821429Y-124372762D02*
X158059524Y-125087048D01*
X157440476Y-125087048D01*
X179014286Y-125420381D02*
X179014286Y-124420381D01*
X178442857Y-125420381D02*
X178871429Y-124848952D01*
X178442857Y-124420381D02*
X179014286Y-124991810D01*
X177490476Y-125420381D02*
X178061905Y-125420381D01*
X177776191Y-125420381D02*
X177776191Y-124420381D01*
X177871429Y-124563238D01*
X177966667Y-124658476D01*
X178061905Y-124706095D01*
X176585714Y-124420381D02*
X177061905Y-124420381D01*
X177109524Y-124896571D01*
X177061905Y-124848952D01*
X176966667Y-124801333D01*
X176728571Y-124801333D01*
X176633333Y-124848952D01*
X176585714Y-124896571D01*
X176538095Y-124991810D01*
X176538095Y-125229905D01*
X176585714Y-125325143D01*
X176633333Y-125372762D01*
X176728571Y-125420381D01*
X176966667Y-125420381D01*
X177061905Y-125372762D01*
X177109524Y-125325143D01*
X198064286Y-125420381D02*
X198064286Y-124420381D01*
X197492857Y-125420381D02*
X197921429Y-124848952D01*
X197492857Y-124420381D02*
X198064286Y-124991810D01*
X196540476Y-125420381D02*
X197111905Y-125420381D01*
X196826191Y-125420381D02*
X196826191Y-124420381D01*
X196921429Y-124563238D01*
X197016667Y-124658476D01*
X197111905Y-124706095D01*
X195683333Y-124420381D02*
X195873810Y-124420381D01*
X195969048Y-124468000D01*
X196016667Y-124515619D01*
X196111905Y-124658476D01*
X196159524Y-124848952D01*
X196159524Y-125229905D01*
X196111905Y-125325143D01*
X196064286Y-125372762D01*
X195969048Y-125420381D01*
X195778571Y-125420381D01*
X195683333Y-125372762D01*
X195635714Y-125325143D01*
X195588095Y-125229905D01*
X195588095Y-124991810D01*
X195635714Y-124896571D01*
X195683333Y-124848952D01*
X195778571Y-124801333D01*
X195969048Y-124801333D01*
X196064286Y-124848952D01*
X196111905Y-124896571D01*
X196159524Y-124991810D01*
X140914286Y-144470381D02*
X140914286Y-143470381D01*
X140342857Y-144470381D02*
X140771429Y-143898952D01*
X140342857Y-143470381D02*
X140914286Y-144041810D01*
X139390476Y-144470381D02*
X139961905Y-144470381D01*
X139676191Y-144470381D02*
X139676191Y-143470381D01*
X139771429Y-143613238D01*
X139866667Y-143708476D01*
X139961905Y-143756095D01*
X139057143Y-143470381D02*
X138390476Y-143470381D01*
X138819048Y-144470381D01*
X159964286Y-144470381D02*
X159964286Y-143470381D01*
X159392857Y-144470381D02*
X159821429Y-143898952D01*
X159392857Y-143470381D02*
X159964286Y-144041810D01*
X158440476Y-144470381D02*
X159011905Y-144470381D01*
X158726191Y-144470381D02*
X158726191Y-143470381D01*
X158821429Y-143613238D01*
X158916667Y-143708476D01*
X159011905Y-143756095D01*
X157869048Y-143898952D02*
X157964286Y-143851333D01*
X158011905Y-143803714D01*
X158059524Y-143708476D01*
X158059524Y-143660857D01*
X158011905Y-143565619D01*
X157964286Y-143518000D01*
X157869048Y-143470381D01*
X157678571Y-143470381D01*
X157583333Y-143518000D01*
X157535714Y-143565619D01*
X157488095Y-143660857D01*
X157488095Y-143708476D01*
X157535714Y-143803714D01*
X157583333Y-143851333D01*
X157678571Y-143898952D01*
X157869048Y-143898952D01*
X157964286Y-143946571D01*
X158011905Y-143994190D01*
X158059524Y-144089429D01*
X158059524Y-144279905D01*
X158011905Y-144375143D01*
X157964286Y-144422762D01*
X157869048Y-144470381D01*
X157678571Y-144470381D01*
X157583333Y-144422762D01*
X157535714Y-144375143D01*
X157488095Y-144279905D01*
X157488095Y-144089429D01*
X157535714Y-143994190D01*
X157583333Y-143946571D01*
X157678571Y-143898952D01*
X179014286Y-144470381D02*
X179014286Y-143470381D01*
X178442857Y-144470381D02*
X178871429Y-143898952D01*
X178442857Y-143470381D02*
X179014286Y-144041810D01*
X177490476Y-144470381D02*
X178061905Y-144470381D01*
X177776191Y-144470381D02*
X177776191Y-143470381D01*
X177871429Y-143613238D01*
X177966667Y-143708476D01*
X178061905Y-143756095D01*
X177014286Y-144470381D02*
X176823810Y-144470381D01*
X176728571Y-144422762D01*
X176680952Y-144375143D01*
X176585714Y-144232286D01*
X176538095Y-144041810D01*
X176538095Y-143660857D01*
X176585714Y-143565619D01*
X176633333Y-143518000D01*
X176728571Y-143470381D01*
X176919048Y-143470381D01*
X177014286Y-143518000D01*
X177061905Y-143565619D01*
X177109524Y-143660857D01*
X177109524Y-143898952D01*
X177061905Y-143994190D01*
X177014286Y-144041810D01*
X176919048Y-144089429D01*
X176728571Y-144089429D01*
X176633333Y-144041810D01*
X176585714Y-143994190D01*
X176538095Y-143898952D01*
X198064286Y-144470381D02*
X198064286Y-143470381D01*
X197492857Y-144470381D02*
X197921429Y-143898952D01*
X197492857Y-143470381D02*
X198064286Y-144041810D01*
X197111905Y-143565619D02*
X197064286Y-143518000D01*
X196969048Y-143470381D01*
X196730952Y-143470381D01*
X196635714Y-143518000D01*
X196588095Y-143565619D01*
X196540476Y-143660857D01*
X196540476Y-143756095D01*
X196588095Y-143898952D01*
X197159524Y-144470381D01*
X196540476Y-144470381D01*
X195921429Y-143470381D02*
X195826190Y-143470381D01*
X195730952Y-143518000D01*
X195683333Y-143565619D01*
X195635714Y-143660857D01*
X195588095Y-143851333D01*
X195588095Y-144089429D01*
X195635714Y-144279905D01*
X195683333Y-144375143D01*
X195730952Y-144422762D01*
X195826190Y-144470381D01*
X195921429Y-144470381D01*
X196016667Y-144422762D01*
X196064286Y-144375143D01*
X196111905Y-144279905D01*
X196159524Y-144089429D01*
X196159524Y-143851333D01*
X196111905Y-143660857D01*
X196064286Y-143565619D01*
X196016667Y-143518000D01*
X195921429Y-143470381D01*
M02*
