M48
;DRILL file {KiCad 4.0.6} date 02/17/18 19:19:52
;FORMAT={-:-/ absolute / inch / decimal}
FMAT,2
INCH,TZ
T1C0.067
T2C0.157
%
G90
G05
M72
T1
X5.3Y-2.5
X5.3Y-3.25
X5.3Y-4.
X5.3Y-4.75
X5.3Y-5.5
X5.7Y-2.5
X5.7Y-3.25
X5.7Y-4.
X5.7Y-4.75
X5.7Y-5.5
X6.05Y-2.5
X6.05Y-3.25
X6.05Y-4.
X6.05Y-4.75
X6.05Y-5.5
X6.45Y-2.5
X6.45Y-3.25
X6.45Y-4.
X6.45Y-4.75
X6.45Y-5.5
X6.8Y-2.5
X6.8Y-3.25
X6.8Y-4.
X6.8Y-4.75
X6.8Y-5.5
X7.2Y-2.5
X7.2Y-3.25
X7.2Y-4.
X7.2Y-4.75
X7.2Y-5.5
X7.55Y-2.5
X7.55Y-3.25
X7.55Y-4.
X7.55Y-4.75
X7.55Y-5.5
X7.95Y-2.5
X7.95Y-3.25
X7.95Y-4.
X7.95Y-4.75
X7.95Y-5.5
T2
X5.5Y-2.5
X5.5Y-3.25
X5.5Y-4.
X5.5Y-4.75
X5.5Y-5.5
X6.25Y-2.5
X6.25Y-3.25
X6.25Y-4.
X6.25Y-4.75
X6.25Y-5.5
X7.Y-2.5
X7.Y-3.25
X7.Y-4.
X7.Y-4.75
X7.Y-5.5
X7.75Y-2.5
X7.75Y-3.25
X7.75Y-4.
X7.75Y-4.75
X7.75Y-5.5
T0
M30
