M48
;DRILL file {KiCad 4.0.6} date 02/17/18 19:19:52
;FORMAT={-:-/ absolute / inch / decimal}
FMAT,2
INCH,TZ
T1C0.043
T2C0.059
%
G90
G05
M72
T1
X6.06Y-1.37
X6.06Y-1.97
X6.16Y-1.37
X6.16Y-1.97
X6.26Y-1.37
X6.26Y-1.97
X6.36Y-1.37
X6.36Y-1.97
X6.46Y-1.37
X6.46Y-1.47
X6.46Y-1.87
X6.46Y-1.97
X6.56Y-1.37
X6.56Y-1.97
X6.66Y-1.37
X6.66Y-1.97
X6.76Y-1.37
X6.76Y-1.97
X6.86Y-1.37
X6.86Y-1.97
X6.96Y-1.37
X6.96Y-1.97
X7.06Y-1.37
X7.06Y-1.97
X7.16Y-1.37
X7.16Y-1.47
X7.16Y-1.57
X7.16Y-1.67
X7.16Y-1.77
X7.16Y-1.87
X7.16Y-1.97
T2
X5.3819Y-2.3425G85X5.35Y-2.4
G05
X5.3819Y-3.0925G85X5.35Y-3.15
G05
X5.3819Y-3.8425G85X5.35Y-3.9
G05
X5.3819Y-4.5925G85X5.35Y-4.65
G05
X5.3819Y-5.3425G85X5.35Y-5.4
G05
X5.6Y-2.3G85X5.5984Y-2.3228
G05
X5.6Y-3.05G85X5.5984Y-3.0728
G05
X5.6Y-3.8G85X5.5984Y-3.8228
G05
X5.6Y-4.55G85X5.5984Y-4.5728
G05
X5.6Y-5.3G85X5.5984Y-5.3228
G05
X6.1319Y-2.3425G85X6.1Y-2.4
G05
X6.1319Y-3.0925G85X6.1Y-3.15
G05
X6.1319Y-3.8425G85X6.1Y-3.9
G05
X6.1319Y-4.5925G85X6.1Y-4.65
G05
X6.1319Y-5.3425G85X6.1Y-5.4
G05
X6.35Y-2.3G85X6.3484Y-2.3228
G05
X6.35Y-3.05G85X6.3484Y-3.0728
G05
X6.35Y-3.8G85X6.3484Y-3.8228
G05
X6.35Y-4.55G85X6.3484Y-4.5728
G05
X6.35Y-5.3G85X6.3484Y-5.3228
G05
X6.8819Y-2.3425G85X6.85Y-2.4
G05
X6.8819Y-3.0925G85X6.85Y-3.15
G05
X6.8819Y-3.8425G85X6.85Y-3.9
G05
X6.8819Y-4.5925G85X6.85Y-4.65
G05
X6.8819Y-5.3425G85X6.85Y-5.4
G05
X7.1Y-2.3G85X7.0984Y-2.3228
G05
X7.1Y-3.05G85X7.0984Y-3.0728
G05
X7.1Y-3.8G85X7.0984Y-3.8228
G05
X7.1Y-4.55G85X7.0984Y-4.5728
G05
X7.1Y-5.3G85X7.0984Y-5.3228
G05
X7.6319Y-2.3425G85X7.6Y-2.4
G05
X7.6319Y-3.0925G85X7.6Y-3.15
G05
X7.6319Y-3.8425G85X7.6Y-3.9
G05
X7.6319Y-4.5925G85X7.6Y-4.65
G05
X7.6319Y-5.3425G85X7.6Y-5.4
G05
X7.85Y-2.3G85X7.8484Y-2.3228
G05
X7.85Y-3.05G85X7.8484Y-3.0728
G05
X7.85Y-3.8G85X7.8484Y-3.8228
G05
X7.85Y-4.55G85X7.8484Y-4.5728
G05
X7.85Y-5.3G85X7.8484Y-5.3228
G05
T0
M30
