<?xml version="1.0" standalone="no"?>
 <!DOCTYPE svg PUBLIC "-//W3C//DTD SVG 1.1//EN" 
 "http://www.w3.org/Graphics/SVG/1.1/DTD/svg11.dtd"> 
<svg xmlns="http://www.w3.org/2000/svg" version="1.1" 
    width="29.7002cm" height="21.0007cm" viewBox="0 0 116930 82680 ">
<title>SVG Picture created as RGB keyboard-F.Mask.svg date 2017/11/15 12:40:33 </title>
  <desc>Picture generated by PCBNEW </desc>
<g style="fill:#000000; fill-opacity:1;stroke:#000000; stroke-opacity:1;
stroke-linecap:round; stroke-linejoin:round; "
 transform="translate(0 0) scale(1 1)">
</g>
<g style="fill:#000000; fill-opacity:0.0; 
stroke:#000000; stroke-width:-0.000393701; stroke-opacity:1; 
stroke-linecap:round; stroke-linejoin:round;">
</g>
<g style="fill:#000000; fill-opacity:0.0; 
stroke:#000000; stroke-width:39.3701; stroke-opacity:1; 
stroke-linecap:round; stroke-linejoin:round;">
</g>
<g style="fill:#000000; fill-opacity:0.0; 
stroke:#000000; stroke-width:59.0551; stroke-opacity:1; 
stroke-linecap:round; stroke-linejoin:round;">
<rect x="69685.9" y="65357.2" width="42519.7" height="12598.4" rx="0" />
</g>
<g style="fill:#000000; fill-opacity:0.0; 
stroke:#000000; stroke-width:39.3701; stroke-opacity:1; 
stroke-linecap:round; stroke-linejoin:round;">
</g>
<g style="fill:#000000; fill-opacity:0.0; 
stroke:#000000; stroke-width:59.0551; stroke-opacity:1; 
stroke-linecap:round; stroke-linejoin:round;">
<rect x="3937.01" y="3937.01" width="109056" height="74806" rx="0" />
</g>
<g style="fill:#000000; fill-opacity:0.0; 
stroke:#000000; stroke-width:39.3701; stroke-opacity:1; 
stroke-linecap:round; stroke-linejoin:round;">
</g>
<g style="fill:#000000; fill-opacity:0.0; 
stroke:#000000; stroke-width:59.0551; stroke-opacity:1; 
stroke-linecap:round; stroke-linejoin:round;">
<rect x="4724.41" y="4724.41" width="107481" height="73231.2" rx="0" />
</g>
<g style="fill:#000000; fill-opacity:0.0; 
stroke:#000000; stroke-width:39.3701; stroke-opacity:1; 
stroke-linecap:round; stroke-linejoin:round;">
</g>
<g style="fill:#000000; fill-opacity:0.0; 
stroke:#000000; stroke-width:59.0551; stroke-opacity:1; 
stroke-linecap:round; stroke-linejoin:round;">
<path d="M23622 4724
L23622 3937
" />
</g>
<g style="fill:#000000; fill-opacity:0.0; 
stroke:#000000; stroke-width:39.3701; stroke-opacity:1; 
stroke-linecap:round; stroke-linejoin:round;">
</g>
<g style="fill:#000000; fill-opacity:0.0; 
stroke:#000000; stroke-width:59.0551; stroke-opacity:1; 
stroke-linecap:round; stroke-linejoin:round;">
<path d="M43307 4724
L43307 3937
" />
</g>
<g style="fill:#000000; fill-opacity:0.0; 
stroke:#000000; stroke-width:39.3701; stroke-opacity:1; 
stroke-linecap:round; stroke-linejoin:round;">
</g>
<g style="fill:#000000; fill-opacity:0.0; 
stroke:#000000; stroke-width:59.0551; stroke-opacity:1; 
stroke-linecap:round; stroke-linejoin:round;">
<path d="M62992 4724
L62992 3937
" />
</g>
<g style="fill:#000000; fill-opacity:0.0; 
stroke:#000000; stroke-width:39.3701; stroke-opacity:1; 
stroke-linecap:round; stroke-linejoin:round;">
</g>
<g style="fill:#000000; fill-opacity:0.0; 
stroke:#000000; stroke-width:59.0551; stroke-opacity:1; 
stroke-linecap:round; stroke-linejoin:round;">
<path d="M82677 4724
L82677 3937
" />
</g>
<g style="fill:#000000; fill-opacity:0.0; 
stroke:#000000; stroke-width:39.3701; stroke-opacity:1; 
stroke-linecap:round; stroke-linejoin:round;">
</g>
<g style="fill:#000000; fill-opacity:0.0; 
stroke:#000000; stroke-width:59.0551; stroke-opacity:1; 
stroke-linecap:round; stroke-linejoin:round;">
<path d="M102362 4724
L102362 3937
" />
</g>
<g style="fill:#000000; fill-opacity:0.0; 
stroke:#000000; stroke-width:39.3701; stroke-opacity:1; 
stroke-linecap:round; stroke-linejoin:round;">
</g>
<g style="fill:#000000; fill-opacity:0.0; 
stroke:#000000; stroke-width:59.0551; stroke-opacity:1; 
stroke-linecap:round; stroke-linejoin:round;">
<path d="M14169 4562
L13877 4562
" />
<path d="M14023 4562
L14023 4050
L13974 4123
L13925 4172
L13877 4196
" />
</g>
<g style="fill:#000000; fill-opacity:0.0; 
stroke:#000000; stroke-width:39.3701; stroke-opacity:1; 
stroke-linecap:round; stroke-linejoin:round;">
</g>
<g style="fill:#000000; fill-opacity:0.0; 
stroke:#000000; stroke-width:59.0551; stroke-opacity:1; 
stroke-linecap:round; stroke-linejoin:round;">
<path d="M33562 4099
L33586 4074
L33635 4050
L33757 4050
L33805 4074
L33830 4099
L33854 4147
L33854 4196
L33830 4269
L33537 4562
L33854 4562
" />
</g>
<g style="fill:#000000; fill-opacity:0.0; 
stroke:#000000; stroke-width:39.3701; stroke-opacity:1; 
stroke-linecap:round; stroke-linejoin:round;">
</g>
<g style="fill:#000000; fill-opacity:0.0; 
stroke:#000000; stroke-width:59.0551; stroke-opacity:1; 
stroke-linecap:round; stroke-linejoin:round;">
<path d="M53222 4050
L53539 4050
L53368 4245
L53442 4245
L53490 4269
L53515 4294
L53539 4342
L53539 4464
L53515 4513
L53490 4537
L53442 4562
L53295 4562
L53247 4537
L53222 4513
" />
</g>
<g style="fill:#000000; fill-opacity:0.0; 
stroke:#000000; stroke-width:39.3701; stroke-opacity:1; 
stroke-linecap:round; stroke-linejoin:round;">
</g>
<g style="fill:#000000; fill-opacity:0.0; 
stroke:#000000; stroke-width:59.0551; stroke-opacity:1; 
stroke-linecap:round; stroke-linejoin:round;">
<path d="M73175 4221
L73175 4562
" />
<path d="M73053 4026
L72932 4391
L73248 4391
" />
</g>
<g style="fill:#000000; fill-opacity:0.0; 
stroke:#000000; stroke-width:39.3701; stroke-opacity:1; 
stroke-linecap:round; stroke-linejoin:round;">
</g>
<g style="fill:#000000; fill-opacity:0.0; 
stroke:#000000; stroke-width:59.0551; stroke-opacity:1; 
stroke-linecap:round; stroke-linejoin:round;">
<path d="M92885 4050
L92641 4050
L92617 4294
L92641 4269
L92690 4245
L92812 4245
L92860 4269
L92885 4294
L92909 4342
L92909 4464
L92885 4513
L92860 4537
L92812 4562
L92690 4562
L92641 4537
L92617 4513
" />
</g>
<g style="fill:#000000; fill-opacity:0.0; 
stroke:#000000; stroke-width:39.3701; stroke-opacity:1; 
stroke-linecap:round; stroke-linejoin:round;">
</g>
<g style="fill:#000000; fill-opacity:0.0; 
stroke:#000000; stroke-width:59.0551; stroke-opacity:1; 
stroke-linecap:round; stroke-linejoin:round;">
<path d="M112545 4050
L112448 4050
L112399 4074
L112375 4099
L112326 4172
L112302 4269
L112302 4464
L112326 4513
L112350 4537
L112399 4562
L112497 4562
L112545 4537
L112570 4513
L112594 4464
L112594 4342
L112570 4294
L112545 4269
L112497 4245
L112399 4245
L112350 4269
L112326 4294
L112302 4342
" />
</g>
<g style="fill:#000000; fill-opacity:0.0; 
stroke:#000000; stroke-width:39.3701; stroke-opacity:1; 
stroke-linecap:round; stroke-linejoin:round;">
</g>
<g style="fill:#000000; fill-opacity:0.0; 
stroke:#000000; stroke-width:59.0551; stroke-opacity:1; 
stroke-linecap:round; stroke-linejoin:round;">
<path d="M23622 77955
L23622 78742
" />
</g>
<g style="fill:#000000; fill-opacity:0.0; 
stroke:#000000; stroke-width:39.3701; stroke-opacity:1; 
stroke-linecap:round; stroke-linejoin:round;">
</g>
<g style="fill:#000000; fill-opacity:0.0; 
stroke:#000000; stroke-width:59.0551; stroke-opacity:1; 
stroke-linecap:round; stroke-linejoin:round;">
<path d="M43307 77955
L43307 78742
" />
</g>
<g style="fill:#000000; fill-opacity:0.0; 
stroke:#000000; stroke-width:39.3701; stroke-opacity:1; 
stroke-linecap:round; stroke-linejoin:round;">
</g>
<g style="fill:#000000; fill-opacity:0.0; 
stroke:#000000; stroke-width:59.0551; stroke-opacity:1; 
stroke-linecap:round; stroke-linejoin:round;">
<path d="M62992 77955
L62992 78742
" />
</g>
<g style="fill:#000000; fill-opacity:0.0; 
stroke:#000000; stroke-width:39.3701; stroke-opacity:1; 
stroke-linecap:round; stroke-linejoin:round;">
</g>
<g style="fill:#000000; fill-opacity:0.0; 
stroke:#000000; stroke-width:59.0551; stroke-opacity:1; 
stroke-linecap:round; stroke-linejoin:round;">
<path d="M82677 77955
L82677 78742
" />
</g>
<g style="fill:#000000; fill-opacity:0.0; 
stroke:#000000; stroke-width:39.3701; stroke-opacity:1; 
stroke-linecap:round; stroke-linejoin:round;">
</g>
<g style="fill:#000000; fill-opacity:0.0; 
stroke:#000000; stroke-width:59.0551; stroke-opacity:1; 
stroke-linecap:round; stroke-linejoin:round;">
<path d="M102362 77955
L102362 78742
" />
</g>
<g style="fill:#000000; fill-opacity:0.0; 
stroke:#000000; stroke-width:39.3701; stroke-opacity:1; 
stroke-linecap:round; stroke-linejoin:round;">
</g>
<g style="fill:#000000; fill-opacity:0.0; 
stroke:#000000; stroke-width:59.0551; stroke-opacity:1; 
stroke-linecap:round; stroke-linejoin:round;">
<path d="M14169 78580
L13877 78580
" />
<path d="M14023 78580
L14023 78069
L13974 78142
L13925 78190
L13877 78215
" />
</g>
<g style="fill:#000000; fill-opacity:0.0; 
stroke:#000000; stroke-width:39.3701; stroke-opacity:1; 
stroke-linecap:round; stroke-linejoin:round;">
</g>
<g style="fill:#000000; fill-opacity:0.0; 
stroke:#000000; stroke-width:59.0551; stroke-opacity:1; 
stroke-linecap:round; stroke-linejoin:round;">
<path d="M33562 78117
L33586 78093
L33635 78069
L33757 78069
L33805 78093
L33830 78117
L33854 78166
L33854 78215
L33830 78288
L33537 78580
L33854 78580
" />
</g>
<g style="fill:#000000; fill-opacity:0.0; 
stroke:#000000; stroke-width:39.3701; stroke-opacity:1; 
stroke-linecap:round; stroke-linejoin:round;">
</g>
<g style="fill:#000000; fill-opacity:0.0; 
stroke:#000000; stroke-width:59.0551; stroke-opacity:1; 
stroke-linecap:round; stroke-linejoin:round;">
<path d="M53222 78069
L53539 78069
L53368 78263
L53442 78263
L53490 78288
L53515 78312
L53539 78361
L53539 78483
L53515 78532
L53490 78556
L53442 78580
L53295 78580
L53247 78556
L53222 78532
" />
</g>
<g style="fill:#000000; fill-opacity:0.0; 
stroke:#000000; stroke-width:39.3701; stroke-opacity:1; 
stroke-linecap:round; stroke-linejoin:round;">
</g>
<g style="fill:#000000; fill-opacity:0.0; 
stroke:#000000; stroke-width:59.0551; stroke-opacity:1; 
stroke-linecap:round; stroke-linejoin:round;">
<path d="M73175 78239
L73175 78580
" />
<path d="M73053 78044
L72932 78410
L73248 78410
" />
</g>
<g style="fill:#000000; fill-opacity:0.0; 
stroke:#000000; stroke-width:39.3701; stroke-opacity:1; 
stroke-linecap:round; stroke-linejoin:round;">
</g>
<g style="fill:#000000; fill-opacity:0.0; 
stroke:#000000; stroke-width:59.0551; stroke-opacity:1; 
stroke-linecap:round; stroke-linejoin:round;">
<path d="M92885 78069
L92641 78069
L92617 78312
L92641 78288
L92690 78263
L92812 78263
L92860 78288
L92885 78312
L92909 78361
L92909 78483
L92885 78532
L92860 78556
L92812 78580
L92690 78580
L92641 78556
L92617 78532
" />
</g>
<g style="fill:#000000; fill-opacity:0.0; 
stroke:#000000; stroke-width:39.3701; stroke-opacity:1; 
stroke-linecap:round; stroke-linejoin:round;">
</g>
<g style="fill:#000000; fill-opacity:0.0; 
stroke:#000000; stroke-width:59.0551; stroke-opacity:1; 
stroke-linecap:round; stroke-linejoin:round;">
<path d="M112545 78069
L112448 78069
L112399 78093
L112375 78117
L112326 78190
L112302 78288
L112302 78483
L112326 78532
L112350 78556
L112399 78580
L112497 78580
L112545 78556
L112570 78532
L112594 78483
L112594 78361
L112570 78312
L112545 78288
L112497 78263
L112399 78263
L112350 78288
L112326 78312
L112302 78361
" />
</g>
<g style="fill:#000000; fill-opacity:0.0; 
stroke:#000000; stroke-width:39.3701; stroke-opacity:1; 
stroke-linecap:round; stroke-linejoin:round;">
</g>
<g style="fill:#000000; fill-opacity:0.0; 
stroke:#000000; stroke-width:59.0551; stroke-opacity:1; 
stroke-linecap:round; stroke-linejoin:round;">
<path d="M3937 23622
L4724 23622
" />
</g>
<g style="fill:#000000; fill-opacity:0.0; 
stroke:#000000; stroke-width:39.3701; stroke-opacity:1; 
stroke-linecap:round; stroke-linejoin:round;">
</g>
<g style="fill:#000000; fill-opacity:0.0; 
stroke:#000000; stroke-width:59.0551; stroke-opacity:1; 
stroke-linecap:round; stroke-linejoin:round;">
<path d="M3937 43307
L4724 43307
" />
</g>
<g style="fill:#000000; fill-opacity:0.0; 
stroke:#000000; stroke-width:39.3701; stroke-opacity:1; 
stroke-linecap:round; stroke-linejoin:round;">
</g>
<g style="fill:#000000; fill-opacity:0.0; 
stroke:#000000; stroke-width:59.0551; stroke-opacity:1; 
stroke-linecap:round; stroke-linejoin:round;">
<path d="M3937 62992
L4724 62992
" />
</g>
<g style="fill:#000000; fill-opacity:0.0; 
stroke:#000000; stroke-width:39.3701; stroke-opacity:1; 
stroke-linecap:round; stroke-linejoin:round;">
</g>
<g style="fill:#000000; fill-opacity:0.0; 
stroke:#000000; stroke-width:59.0551; stroke-opacity:1; 
stroke-linecap:round; stroke-linejoin:round;">
<path d="M4208 13864
L4452 13864
" />
<path d="M4160 14011
L4330 13499
L4501 14011
" />
</g>
<g style="fill:#000000; fill-opacity:0.0; 
stroke:#000000; stroke-width:39.3701; stroke-opacity:1; 
stroke-linecap:round; stroke-linejoin:round;">
</g>
<g style="fill:#000000; fill-opacity:0.0; 
stroke:#000000; stroke-width:59.0551; stroke-opacity:1; 
stroke-linecap:round; stroke-linejoin:round;">
<path d="M4367 33428
L4440 33452
L4464 33476
L4489 33525
L4489 33598
L4464 33647
L4440 33671
L4391 33696
L4196 33696
L4196 33184
L4367 33184
L4416 33208
L4440 33233
L4464 33281
L4464 33330
L4440 33379
L4416 33403
L4367 33428
L4196 33428
" />
</g>
<g style="fill:#000000; fill-opacity:0.0; 
stroke:#000000; stroke-width:39.3701; stroke-opacity:1; 
stroke-linecap:round; stroke-linejoin:round;">
</g>
<g style="fill:#000000; fill-opacity:0.0; 
stroke:#000000; stroke-width:59.0551; stroke-opacity:1; 
stroke-linecap:round; stroke-linejoin:round;">
<path d="M4489 53332
L4464 53356
L4391 53381
L4342 53381
L4269 53356
L4221 53308
L4196 53259
L4172 53161
L4172 53088
L4196 52991
L4221 52942
L4269 52893
L4342 52869
L4391 52869
L4464 52893
L4489 52918
" />
</g>
<g style="fill:#000000; fill-opacity:0.0; 
stroke:#000000; stroke-width:39.3701; stroke-opacity:1; 
stroke-linecap:round; stroke-linejoin:round;">
</g>
<g style="fill:#000000; fill-opacity:0.0; 
stroke:#000000; stroke-width:59.0551; stroke-opacity:1; 
stroke-linecap:round; stroke-linejoin:round;">
<path d="M4196 73066
L4196 72554
L4318 72554
L4391 72578
L4440 72627
L4464 72676
L4489 72773
L4489 72846
L4464 72944
L4440 72993
L4391 73041
L4318 73066
L4196 73066
" />
</g>
<g style="fill:#000000; fill-opacity:0.0; 
stroke:#000000; stroke-width:39.3701; stroke-opacity:1; 
stroke-linecap:round; stroke-linejoin:round;">
</g>
<g style="fill:#000000; fill-opacity:0.0; 
stroke:#000000; stroke-width:59.0551; stroke-opacity:1; 
stroke-linecap:round; stroke-linejoin:round;">
<path d="M112992 23622
L112205 23622
" />
</g>
<g style="fill:#000000; fill-opacity:0.0; 
stroke:#000000; stroke-width:39.3701; stroke-opacity:1; 
stroke-linecap:round; stroke-linejoin:round;">
</g>
<g style="fill:#000000; fill-opacity:0.0; 
stroke:#000000; stroke-width:59.0551; stroke-opacity:1; 
stroke-linecap:round; stroke-linejoin:round;">
<path d="M112992 43307
L112205 43307
" />
</g>
<g style="fill:#000000; fill-opacity:0.0; 
stroke:#000000; stroke-width:39.3701; stroke-opacity:1; 
stroke-linecap:round; stroke-linejoin:round;">
</g>
<g style="fill:#000000; fill-opacity:0.0; 
stroke:#000000; stroke-width:59.0551; stroke-opacity:1; 
stroke-linecap:round; stroke-linejoin:round;">
<path d="M112992 62992
L112205 62992
" />
</g>
<g style="fill:#000000; fill-opacity:0.0; 
stroke:#000000; stroke-width:39.3701; stroke-opacity:1; 
stroke-linecap:round; stroke-linejoin:round;">
</g>
<g style="fill:#000000; fill-opacity:0.0; 
stroke:#000000; stroke-width:59.0551; stroke-opacity:1; 
stroke-linecap:round; stroke-linejoin:round;">
<path d="M112477 13864
L112721 13864
" />
<path d="M112428 14011
L112599 13499
L112769 14011
" />
</g>
<g style="fill:#000000; fill-opacity:0.0; 
stroke:#000000; stroke-width:39.3701; stroke-opacity:1; 
stroke-linecap:round; stroke-linejoin:round;">
</g>
<g style="fill:#000000; fill-opacity:0.0; 
stroke:#000000; stroke-width:59.0551; stroke-opacity:1; 
stroke-linecap:round; stroke-linejoin:round;">
<path d="M112635 33428
L112708 33452
L112733 33476
L112757 33525
L112757 33598
L112733 33647
L112708 33671
L112660 33696
L112465 33696
L112465 33184
L112635 33184
L112684 33208
L112708 33233
L112733 33281
L112733 33330
L112708 33379
L112684 33403
L112635 33428
L112465 33428
" />
</g>
<g style="fill:#000000; fill-opacity:0.0; 
stroke:#000000; stroke-width:39.3701; stroke-opacity:1; 
stroke-linecap:round; stroke-linejoin:round;">
</g>
<g style="fill:#000000; fill-opacity:0.0; 
stroke:#000000; stroke-width:59.0551; stroke-opacity:1; 
stroke-linecap:round; stroke-linejoin:round;">
<path d="M112757 53332
L112733 53356
L112660 53381
L112611 53381
L112538 53356
L112489 53308
L112465 53259
L112440 53161
L112440 53088
L112465 52991
L112489 52942
L112538 52893
L112611 52869
L112660 52869
L112733 52893
L112757 52918
" />
</g>
<g style="fill:#000000; fill-opacity:0.0; 
stroke:#000000; stroke-width:39.3701; stroke-opacity:1; 
stroke-linecap:round; stroke-linejoin:round;">
</g>
<g style="fill:#000000; fill-opacity:0.0; 
stroke:#000000; stroke-width:59.0551; stroke-opacity:1; 
stroke-linecap:round; stroke-linejoin:round;">
<path d="M112465 73066
L112465 72554
L112587 72554
L112660 72578
L112708 72627
L112733 72676
L112757 72773
L112757 72846
L112733 72944
L112708 72993
L112660 73041
L112587 73066
L112465 73066
" />
</g>
<g style="fill:#000000; fill-opacity:0.0; 
stroke:#000000; stroke-width:39.3701; stroke-opacity:1; 
stroke-linecap:round; stroke-linejoin:round;">
</g>
<g style="fill:#000000; fill-opacity:0.0; 
stroke:#000000; stroke-width:59.0551; stroke-opacity:1; 
stroke-linecap:round; stroke-linejoin:round;">
<path d="M78881 76293
L78881 75703
L79022 75703
L79106 75731
L79162 75787
L79190 75843
L79219 75956
L79219 76040
L79190 76153
L79162 76209
L79106 76265
L79022 76293
L78881 76293
" />
<path d="M79725 76293
L79725 75984
L79697 75928
L79640 75899
L79528 75899
L79472 75928
" />
<path d="M79725 76265
L79669 76293
L79528 76293
L79472 76265
L79444 76209
L79444 76153
L79472 76096
L79528 76068
L79669 76068
L79725 76040
" />
<path d="M79922 75899
L80147 75899
" />
<path d="M80006 75703
L80006 76209
L80034 76265
L80090 76293
L80147 76293
" />
<path d="M80568 76265
L80512 76293
L80400 76293
L80343 76265
L80315 76209
L80315 75984
L80343 75928
L80400 75899
L80512 75899
L80568 75928
L80597 75984
L80597 76040
L80315 76096
" />
<path d="M80850 76237
L80878 76265
L80850 76293
L80822 76265
L80850 76237
L80850 76293
" />
<path d="M80850 75928
L80878 75956
L80850 75984
L80822 75956
L80850 75928
L80850 75984
" />
</g>
<g style="fill:#000000; fill-opacity:0.0; 
stroke:#000000; stroke-width:39.3701; stroke-opacity:1; 
stroke-linecap:round; stroke-linejoin:round;">
</g>
<g style="fill:#000000; fill-opacity:0.0; 
stroke:#000000; stroke-width:59.0551; stroke-opacity:1; 
stroke-linecap:round; stroke-linejoin:round;">
<path d="M69685 76577
L112205 76577
" />
</g>
<g style="fill:#000000; fill-opacity:0.0; 
stroke:#000000; stroke-width:39.3701; stroke-opacity:1; 
stroke-linecap:round; stroke-linejoin:round;">
</g>
<g style="fill:#000000; fill-opacity:0.0; 
stroke:#000000; stroke-width:59.0551; stroke-opacity:1; 
stroke-linecap:round; stroke-linejoin:round;">
<path d="M70220 77395
L70220 76805
" />
<path d="M70557 77395
L70304 77058
" />
<path d="M70557 76805
L70220 77142
" />
<path d="M70810 77395
L70810 77002
" />
<path d="M70810 76805
L70782 76833
L70810 76861
L70838 76833
L70810 76805
L70810 76861
" />
<path d="M71429 77339
L71401 77367
L71316 77395
L71260 77395
L71176 77367
L71120 77311
L71091 77255
L71063 77142
L71063 77058
L71091 76946
L71120 76889
L71176 76833
L71260 76805
L71316 76805
L71401 76833
L71429 76861
" />
<path d="M71935 77395
L71935 77086
L71907 77030
L71851 77002
L71738 77002
L71682 77030
" />
<path d="M71935 77367
L71879 77395
L71738 77395
L71682 77367
L71654 77311
L71654 77255
L71682 77199
L71738 77171
L71879 77171
L71935 77142
" />
<path d="M72469 77395
L72469 76805
" />
<path d="M72469 77367
L72413 77395
L72301 77395
L72244 77367
L72216 77339
L72188 77283
L72188 77114
L72216 77058
L72244 77030
L72301 77002
L72413 77002
L72469 77030
" />
<path d="M73201 77086
L73397 77086
" />
<path d="M73482 77395
L73201 77395
L73201 76805
L73482 76805
" />
<path d="M73735 77339
L73763 77367
L73735 77395
L73707 77367
L73735 77339
L73735 77395
" />
<path d="M74016 77395
L74016 76805
L74157 76805
L74241 76833
L74297 76889
L74325 76946
L74354 77058
L74354 77142
L74325 77255
L74297 77311
L74241 77367
L74157 77395
L74016 77395
" />
<path d="M74607 77339
L74635 77367
L74607 77395
L74579 77367
L74607 77339
L74607 77395
" />
<path d="M74860 77227
L75141 77227
" />
<path d="M74804 77395
L75000 76805
L75197 77395
" />
<path d="M75394 77339
L75422 77367
L75394 77395
L75366 77367
L75394 77339
L75394 77395
" />
<path d="M76575 77395
L76575 76805
" />
<path d="M76631 77171
L76800 77395
" />
<path d="M76800 77002
L76575 77227
" />
<path d="M77053 77395
L77053 77002
" />
<path d="M77053 76805
L77025 76833
L77053 76861
L77081 76833
L77053 76805
L77053 76861
" />
<path d="M77588 77367
L77531 77395
L77419 77395
L77363 77367
L77334 77339
L77306 77283
L77306 77114
L77334 77058
L77363 77030
L77419 77002
L77531 77002
L77588 77030
" />
<path d="M78094 77395
L78094 77086
L78066 77030
L78009 77002
L77897 77002
L77841 77030
" />
<path d="M78094 77367
L78037 77395
L77897 77395
L77841 77367
L77813 77311
L77813 77255
L77841 77199
L77897 77171
L78037 77171
L78094 77142
" />
<path d="M78628 77395
L78628 76805
" />
<path d="M78628 77367
L78572 77395
L78459 77395
L78403 77367
L78375 77339
L78347 77283
L78347 77114
L78375 77058
L78403 77030
L78459 77002
L78572 77002
L78628 77030
" />
<path d="M79612 77002
L79612 77395
" />
<path d="M79472 76777
L79331 77199
L79697 77199
" />
<path d="M79922 77339
L79950 77367
L79922 77395
L79894 77367
L79922 77339
L79922 77395
" />
<path d="M80315 76805
L80372 76805
L80428 76833
L80456 76861
L80484 76917
L80512 77030
L80512 77171
L80484 77283
L80456 77339
L80428 77367
L80372 77395
L80315 77395
L80259 77367
L80231 77339
L80203 77283
L80175 77171
L80175 77030
L80203 76917
L80231 76861
L80259 76833
L80315 76805
" />
<path d="M80765 77339
L80793 77367
L80765 77395
L80737 77367
L80765 77339
L80765 77395
" />
<path d="M81300 76805
L81187 76805
L81131 76833
L81103 76861
L81046 76946
L81018 77058
L81018 77283
L81046 77339
L81075 77367
L81131 77395
L81243 77395
L81300 77367
L81328 77339
L81356 77283
L81356 77142
L81328 77086
L81300 77058
L81243 77030
L81131 77030
L81075 77058
L81046 77086
L81018 77142
" />
</g>
<g style="fill:#000000; fill-opacity:0.0; 
stroke:#000000; stroke-width:39.3701; stroke-opacity:1; 
stroke-linecap:round; stroke-linejoin:round;">
</g>
<g style="fill:#000000; fill-opacity:0.0; 
stroke:#000000; stroke-width:59.0551; stroke-opacity:1; 
stroke-linecap:round; stroke-linejoin:round;">
<path d="M69685 75396
L112205 75396
" />
</g>
<g style="fill:#000000; fill-opacity:0.0; 
stroke:#000000; stroke-width:39.3701; stroke-opacity:1; 
stroke-linecap:round; stroke-linejoin:round;">
</g>
<g style="fill:#000000; fill-opacity:0.0; 
stroke:#000000; stroke-width:118.11; stroke-opacity:1; 
stroke-linecap:round; stroke-linejoin:round;">
<path d="M104022 76293
L103825 76012
" />
<path d="M103684 76293
L103684 75703
L103909 75703
L103965 75731
L103994 75759
L104022 75815
L104022 75899
L103994 75956
L103965 75984
L103909 76012
L103684 76012
" />
<path d="M104500 76265
L104444 76293
L104331 76293
L104275 76265
L104247 76209
L104247 75984
L104275 75928
L104331 75899
L104444 75899
L104500 75928
L104528 75984
L104528 76040
L104247 76096
" />
<path d="M104725 75899
L104865 76293
L105006 75899
" />
<path d="M105231 76237
L105259 76265
L105231 76293
L105203 76265
L105231 76237
L105231 76293
" />
<path d="M105231 75928
L105259 75956
L105231 75984
L105203 75956
L105231 75928
L105231 75984
" />
</g>
<g style="fill:#000000; fill-opacity:0.0; 
stroke:#000000; stroke-width:39.3701; stroke-opacity:1; 
stroke-linecap:round; stroke-linejoin:round;">
</g>
<g style="fill:#000000; fill-opacity:0.0; 
stroke:#000000; stroke-width:59.0551; stroke-opacity:1; 
stroke-linecap:round; stroke-linejoin:round;">
<path d="M70192 76265
L70276 76293
L70417 76293
L70473 76265
L70501 76237
L70529 76181
L70529 76124
L70501 76068
L70473 76040
L70417 76012
L70304 75984
L70248 75956
L70220 75928
L70192 75871
L70192 75815
L70220 75759
L70248 75731
L70304 75703
L70445 75703
L70529 75731
" />
<path d="M70782 76293
L70782 75899
" />
<path d="M70782 75703
L70754 75731
L70782 75759
L70810 75731
L70782 75703
L70782 75759
" />
<path d="M71007 75899
L71316 75899
L71007 76293
L71316 76293
" />
<path d="M71766 76265
L71710 76293
L71598 76293
L71541 76265
L71513 76209
L71513 75984
L71541 75928
L71598 75899
L71710 75899
L71766 75928
L71795 75984
L71795 76040
L71513 76096
" />
<path d="M72048 76237
L72076 76265
L72048 76293
L72019 76265
L72048 76237
L72048 76293
" />
<path d="M72048 75928
L72076 75956
L72048 75984
L72019 75956
L72048 75928
L72048 75984
" />
<path d="M72751 76124
L73032 76124
" />
<path d="M72694 76293
L72891 75703
L73088 76293
" />
<path d="M73538 75899
L73538 76293
" />
<path d="M73397 75674
L73257 76096
L73622 76096
" />
</g>
<g style="fill:#000000; fill-opacity:0.0; 
stroke:#000000; stroke-width:39.3701; stroke-opacity:1; 
stroke-linecap:round; stroke-linejoin:round;">
</g>
<g style="fill:#000000; fill-opacity:0.0; 
stroke:#000000; stroke-width:59.0551; stroke-opacity:1; 
stroke-linecap:round; stroke-linejoin:round;">
<path d="M103684 77395
L103684 76805
" />
<path d="M104219 77395
L104219 76805
" />
<path d="M104219 77367
L104162 77395
L104050 77395
L103994 77367
L103965 77339
L103937 77283
L103937 77114
L103965 77058
L103994 77030
L104050 77002
L104162 77002
L104219 77030
" />
<path d="M104500 77339
L104528 77367
L104500 77395
L104472 77367
L104500 77339
L104500 77395
" />
<path d="M104500 77030
L104528 77058
L104500 77086
L104472 77058
L104500 77030
L104500 77086
" />
<path d="M105540 77395
L105203 77395
" />
<path d="M105372 77395
L105372 76805
L105315 76889
L105259 76946
L105203 76974
" />
<path d="M106215 76777
L105709 77536
" />
<path d="M106721 77395
L106384 77395
" />
<path d="M106553 77395
L106553 76805
L106496 76889
L106440 76946
L106384 76974
" />
</g>
<g style="fill:#000000; fill-opacity:0.0; 
stroke:#000000; stroke-width:39.3701; stroke-opacity:1; 
stroke-linecap:round; stroke-linejoin:round;">
</g>
<g style="fill:#000000; fill-opacity:0.0; 
stroke:#000000; stroke-width:59.0551; stroke-opacity:1; 
stroke-linecap:round; stroke-linejoin:round;">
<path d="M69685 73821
L112205 73821
" />
</g>
<g style="fill:#000000; fill-opacity:0.0; 
stroke:#000000; stroke-width:39.3701; stroke-opacity:1; 
stroke-linecap:round; stroke-linejoin:round;">
</g>
<g style="fill:#000000; fill-opacity:0.0; 
stroke:#000000; stroke-width:157.48; stroke-opacity:1; 
stroke-linecap:round; stroke-linejoin:round;">
<path d="M70257 74099
L70707 74099
" />
<path d="M70384 74886
L70482 74099
" />
<path d="M70871 74886
L70937 74361
" />
<path d="M70970 74099
L70927 74136
L70960 74174
L71002 74136
L70970 74099
L70960 74174
" />
<path d="M71199 74361
L71499 74361
" />
<path d="M71345 74099
L71260 74774
L71288 74849
L71359 74886
L71434 74886
" />
<path d="M71809 74886
L71738 74849
L71710 74774
L71795 74099
" />
<path d="M72413 74849
L72334 74886
L72184 74886
L72113 74849
L72085 74774
L72123 74474
L72169 74399
L72249 74361
L72399 74361
L72469 74399
L72498 74474
L72488 74549
L72104 74624
" />
<path d="M72793 74811
L72826 74849
L72783 74886
L72751 74849
L72793 74811
L72783 74886
" />
<path d="M72844 74399
L72877 74436
L72835 74474
L72802 74436
L72844 74399
L72835 74474
" />
</g>
<g style="fill:#000000; fill-opacity:0.0; 
stroke:#000000; stroke-width:39.3701; stroke-opacity:1; 
stroke-linecap:round; stroke-linejoin:round;">
</g>
<g style="fill:#000000; fill-opacity:0.0; 
stroke:#000000; stroke-width:59.0551; stroke-opacity:1; 
stroke-linecap:round; stroke-linejoin:round;">
<path d="M70417 73070
L70220 73070
" />
<path d="M70220 73380
L70220 72789
L70501 72789
" />
<path d="M70726 73380
L70726 72986
" />
<path d="M70726 72789
L70698 72817
L70726 72845
L70754 72817
L70726 72789
L70726 72845
" />
<path d="M71091 73380
L71035 73352
L71007 73295
L71007 72789
" />
<path d="M71541 73352
L71485 73380
L71373 73380
L71316 73352
L71288 73295
L71288 73070
L71316 73014
L71373 72986
L71485 72986
L71541 73014
L71570 73070
L71570 73127
L71288 73183
" />
<path d="M71823 73323
L71851 73352
L71823 73380
L71795 73352
L71823 73323
L71823 73380
" />
<path d="M71823 73014
L71851 73042
L71823 73070
L71795 73042
L71823 73014
L71823 73070
" />
<path d="M72891 73380
L72694 73099
" />
<path d="M72554 73380
L72554 72789
L72779 72789
L72835 72817
L72863 72845
L72891 72902
L72891 72986
L72863 73042
L72835 73070
L72779 73099
L72554 73099
" />
<path d="M73454 72817
L73397 72789
L73313 72789
L73229 72817
L73172 72874
L73144 72930
L73116 73042
L73116 73127
L73144 73239
L73172 73295
L73229 73352
L73313 73380
L73369 73380
L73454 73352
L73482 73323
L73482 73127
L73369 73127
" />
<path d="M73932 73070
L74016 73099
L74044 73127
L74072 73183
L74072 73267
L74044 73323
L74016 73352
L73960 73380
L73735 73380
L73735 72789
L73932 72789
L73988 72817
L74016 72845
L74044 72902
L74044 72958
L74016 73014
L73988 73042
L73932 73070
L73735 73070
" />
<path d="M74775 73380
L74775 72789
" />
<path d="M74832 73155
L75000 73380
" />
<path d="M75000 72986
L74775 73211
" />
<path d="M75478 73352
L75422 73380
L75310 73380
L75253 73352
L75225 73295
L75225 73070
L75253 73014
L75310 72986
L75422 72986
L75478 73014
L75507 73070
L75507 73127
L75225 73183
" />
<path d="M75703 72986
L75844 73380
" />
<path d="M75985 72986
L75844 73380
L75788 73520
L75760 73548
L75703 73577
" />
<path d="M76210 73380
L76210 72789
" />
<path d="M76210 73014
L76266 72986
L76378 72986
L76435 73014
L76463 73042
L76491 73099
L76491 73267
L76463 73323
L76435 73352
L76378 73380
L76266 73380
L76210 73352
" />
<path d="M76828 73380
L76772 73352
L76744 73323
L76716 73267
L76716 73099
L76744 73042
L76772 73014
L76828 72986
L76913 72986
L76969 73014
L76997 73042
L77025 73099
L77025 73267
L76997 73323
L76969 73352
L76913 73380
L76828 73380
" />
<path d="M77531 73380
L77531 73070
L77503 73014
L77447 72986
L77334 72986
L77278 73014
" />
<path d="M77531 73352
L77475 73380
L77334 73380
L77278 73352
L77250 73295
L77250 73239
L77278 73183
L77334 73155
L77475 73155
L77531 73127
" />
<path d="M77813 73380
L77813 72986
" />
<path d="M77813 73099
L77841 73042
L77869 73014
L77925 72986
L77981 72986
" />
<path d="M78431 73380
L78431 72789
" />
<path d="M78431 73352
L78375 73380
L78262 73380
L78206 73352
L78178 73323
L78150 73267
L78150 73099
L78178 73042
L78206 73014
L78262 72986
L78375 72986
L78431 73014
" />
<path d="M78712 73323
L78741 73352
L78712 73380
L78684 73352
L78712 73323
L78712 73380
" />
<path d="M78994 73380
L78994 72789
" />
<path d="M79050 73155
L79219 73380
" />
<path d="M79219 72986
L78994 73211
" />
<path d="M79472 73380
L79472 72986
" />
<path d="M79472 72789
L79444 72817
L79472 72845
L79500 72817
L79472 72789
L79472 72845
" />
<path d="M80006 73352
L79950 73380
L79837 73380
L79781 73352
L79753 73323
L79725 73267
L79725 73099
L79753 73042
L79781 73014
L79837 72986
L79950 72986
L80006 73014
" />
<path d="M80512 73380
L80512 73070
L80484 73014
L80428 72986
L80315 72986
L80259 73014
" />
<path d="M80512 73352
L80456 73380
L80315 73380
L80259 73352
L80231 73295
L80231 73239
L80259 73183
L80315 73155
L80456 73155
L80512 73127
" />
<path d="M81046 73380
L81046 72789
" />
<path d="M81046 73352
L80990 73380
L80878 73380
L80822 73352
L80793 73323
L80765 73267
L80765 73099
L80793 73042
L80822 73014
L80878 72986
L80990 72986
L81046 73014
" />
<path d="M81187 73436
L81637 73436
" />
<path d="M81778 72986
L81778 73577
" />
<path d="M81778 73014
L81834 72986
L81946 72986
L82003 73014
L82031 73042
L82059 73099
L82059 73267
L82031 73323
L82003 73352
L81946 73380
L81834 73380
L81778 73352
" />
<path d="M82565 73352
L82509 73380
L82396 73380
L82340 73352
L82312 73323
L82284 73267
L82284 73099
L82312 73042
L82340 73014
L82396 72986
L82509 72986
L82565 73014
" />
<path d="M82818 73380
L82818 72789
" />
<path d="M82818 73014
L82874 72986
L82987 72986
L83043 73014
L83071 73042
L83099 73099
L83099 73267
L83071 73323
L83043 73352
L82987 73380
L82874 73380
L82818 73352
" />
</g>
<g style="fill:#000000; fill-opacity:0.0; 
stroke:#000000; stroke-width:39.3701; stroke-opacity:1; 
stroke-linecap:round; stroke-linejoin:round;">
</g>
<g style="fill:#000000; fill-opacity:0.0; 
stroke:#000000; stroke-width:59.0551; stroke-opacity:1; 
stroke-linecap:round; stroke-linejoin:round;">
<path d="M69685 71459
L112205 71459
" />
</g>
<g style="fill:#000000; fill-opacity:0.0; 
stroke:#000000; stroke-width:39.3701; stroke-opacity:1; 
stroke-linecap:round; stroke-linejoin:round;">
</g>
<g style="fill:#000000; fill-opacity:0.0; 
stroke:#000000; stroke-width:59.0551; stroke-opacity:1; 
stroke-linecap:round; stroke-linejoin:round;">
<path d="M70192 72289
L70276 72317
L70417 72317
L70473 72289
L70501 72260
L70529 72204
L70529 72148
L70501 72092
L70473 72064
L70417 72036
L70304 72007
L70248 71979
L70220 71951
L70192 71895
L70192 71839
L70220 71782
L70248 71754
L70304 71726
L70445 71726
L70529 71754
" />
<path d="M70782 72317
L70782 71726
" />
<path d="M71035 72317
L71035 72007
L71007 71951
L70951 71923
L70867 71923
L70810 71951
L70782 71979
" />
<path d="M71541 72289
L71485 72317
L71373 72317
L71316 72289
L71288 72232
L71288 72007
L71316 71951
L71373 71923
L71485 71923
L71541 71951
L71570 72007
L71570 72064
L71288 72120
" />
<path d="M72048 72289
L71991 72317
L71879 72317
L71823 72289
L71795 72232
L71795 72007
L71823 71951
L71879 71923
L71991 71923
L72048 71951
L72076 72007
L72076 72064
L71795 72120
" />
<path d="M72244 71923
L72469 71923
" />
<path d="M72329 71726
L72329 72232
L72357 72289
L72413 72317
L72469 72317
" />
<path d="M72666 72260
L72694 72289
L72666 72317
L72638 72289
L72666 72260
L72666 72317
" />
<path d="M72666 71951
L72694 71979
L72666 72007
L72638 71979
L72666 71951
L72666 72007
" />
</g>
<g style="fill:#000000; fill-opacity:0.0; 
stroke:#000000; stroke-width:39.3701; stroke-opacity:1; 
stroke-linecap:round; stroke-linejoin:round;">
</g>
<g style="fill:#000000; fill-opacity:0.0; 
stroke:#000000; stroke-width:59.0551; stroke-opacity:1; 
stroke-linecap:round; stroke-linejoin:round;">
<path d="M77559 75396
L77559 76577
" />
</g>
<g style="fill:#000000; fill-opacity:0.0; 
stroke:#000000; stroke-width:39.3701; stroke-opacity:1; 
stroke-linecap:round; stroke-linejoin:round;">
</g>
<g style="fill:#000000; fill-opacity:0.0; 
stroke:#000000; stroke-width:59.0551; stroke-opacity:1; 
stroke-linecap:round; stroke-linejoin:round;">
<path d="M102756 75396
L102756 77955
" />
</g>
<g style="fill:#C2C200; fill-opacity:0.0; 
stroke:#C2C200; stroke-width:59.0551; stroke-opacity:1; 
stroke-linecap:round; stroke-linejoin:round;">
<path d="M48750 58750 A2500 2500 0.0 0 0 51250 61250 " />
<path d="M51250 18750 A2500 2500 0.0 0 0 48750 21250 " />
<path d="M81250 61250 A2500 2500 0.0 0 0 83750 58750 " />
<path d="M83750 21250 A2500 2500 0.0 0 0 81250 18750 " />
<path d="M81250 18750
L51250 18750
" />
<path d="M83750 58750
L83750 21250
" />
<path d="M48750 21250
L48750 58750
" />
<path d="M81250 61250
L51250 61250
" />
</g>
<g style="fill:#840000; fill-opacity:0.0; 
stroke:#840000; stroke-width:59.0551; stroke-opacity:1; 
stroke-linecap:round; stroke-linejoin:round;">
</g>
<g style="fill:#840000; fill-opacity:0.0; 
stroke:#840000; stroke-width:0; stroke-opacity:1; 
stroke-linecap:round; stroke-linejoin:round;">
</g>
<g style="fill:#840000; fill-opacity:1.0; 
stroke:#840000; stroke-width:0; stroke-opacity:1; 
stroke-linecap:round; stroke-linejoin:round;">
<polyline style="fill-rule:evenodd;"
points="58425,25383
59074,25383
59074,26131
58425,26131
58425,25383
" /> 
<polyline style="fill-rule:evenodd;"
points="58425,26368
59074,26368
59074,27116
58425,27116
58425,26368
" /> 
<polyline style="fill-rule:evenodd;"
points="65925,25383
66574,25383
66574,26131
65925,26131
65925,25383
" /> 
<polyline style="fill-rule:evenodd;"
points="65925,26368
66574,26368
66574,27116
65925,27116
65925,26368
" /> 
<polyline style="fill-rule:evenodd;"
points="73425,25383
74074,25383
74074,26131
73425,26131
73425,25383
" /> 
<polyline style="fill-rule:evenodd;"
points="73425,26368
74074,26368
74074,27116
73425,27116
73425,26368
" /> 
<polyline style="fill-rule:evenodd;"
points="81574,27116
80925,27116
80925,26368
81574,26368
81574,27116
" /> 
<polyline style="fill-rule:evenodd;"
points="81574,26131
80925,26131
80925,25383
81574,25383
81574,26131
" /> 
<polyline style="fill-rule:evenodd;"
points="51574,34616
50925,34616
50925,33868
51574,33868
51574,34616
" /> 
<polyline style="fill-rule:evenodd;"
points="51574,33631
50925,33631
50925,32883
51574,32883
51574,33631
" /> 
<polyline style="fill-rule:evenodd;"
points="59074,34616
58425,34616
58425,33868
59074,33868
59074,34616
" /> 
<polyline style="fill-rule:evenodd;"
points="59074,33631
58425,33631
58425,32883
59074,32883
59074,33631
" /> 
<polyline style="fill-rule:evenodd;"
points="66574,34616
65925,34616
65925,33868
66574,33868
66574,34616
" /> 
<polyline style="fill-rule:evenodd;"
points="66574,33631
65925,33631
65925,32883
66574,32883
66574,33631
" /> 
<polyline style="fill-rule:evenodd;"
points="74074,34616
73425,34616
73425,33868
74074,33868
74074,34616
" /> 
<polyline style="fill-rule:evenodd;"
points="74074,33631
73425,33631
73425,32883
74074,32883
74074,33631
" /> 
<polyline style="fill-rule:evenodd;"
points="58425,40383
59074,40383
59074,41131
58425,41131
58425,40383
" /> 
<polyline style="fill-rule:evenodd;"
points="58425,41368
59074,41368
59074,42116
58425,42116
58425,41368
" /> 
<polyline style="fill-rule:evenodd;"
points="65925,40383
66574,40383
66574,41131
65925,41131
65925,40383
" /> 
<polyline style="fill-rule:evenodd;"
points="65925,41368
66574,41368
66574,42116
65925,42116
65925,41368
" /> 
<polyline style="fill-rule:evenodd;"
points="73425,40383
74074,40383
74074,41131
73425,41131
73425,40383
" /> 
<polyline style="fill-rule:evenodd;"
points="73425,41368
74074,41368
74074,42116
73425,42116
73425,41368
" /> 
<polyline style="fill-rule:evenodd;"
points="80925,40383
81574,40383
81574,41131
80925,41131
80925,40383
" /> 
<polyline style="fill-rule:evenodd;"
points="80925,41368
81574,41368
81574,42116
80925,42116
80925,41368
" /> 
<polyline style="fill-rule:evenodd;"
points="50925,47883
51574,47883
51574,48631
50925,48631
50925,47883
" /> 
<polyline style="fill-rule:evenodd;"
points="50925,48868
51574,48868
51574,49616
50925,49616
50925,48868
" /> 
<polyline style="fill-rule:evenodd;"
points="58425,47883
59074,47883
59074,48631
58425,48631
58425,47883
" /> 
<polyline style="fill-rule:evenodd;"
points="58425,48868
59074,48868
59074,49616
58425,49616
58425,48868
" /> 
<polyline style="fill-rule:evenodd;"
points="65925,47883
66574,47883
66574,48631
65925,48631
65925,47883
" /> 
<polyline style="fill-rule:evenodd;"
points="65925,48868
66574,48868
66574,49616
65925,49616
65925,48868
" /> 
<polyline style="fill-rule:evenodd;"
points="73425,47883
74074,47883
74074,48631
73425,48631
73425,47883
" /> 
<polyline style="fill-rule:evenodd;"
points="73425,48868
74074,48868
74074,49616
73425,49616
73425,48868
" /> 
<polyline style="fill-rule:evenodd;"
points="58425,55383
59074,55383
59074,56131
58425,56131
58425,55383
" /> 
<polyline style="fill-rule:evenodd;"
points="58425,56368
59074,56368
59074,57116
58425,57116
58425,56368
" /> 
<polyline style="fill-rule:evenodd;"
points="65925,55383
66574,55383
66574,56131
65925,56131
65925,55383
" /> 
<polyline style="fill-rule:evenodd;"
points="65925,56368
66574,56368
66574,57116
65925,57116
65925,56368
" /> 
<polyline style="fill-rule:evenodd;"
points="73425,55383
74074,55383
74074,56131
73425,56131
73425,55383
" /> 
<polyline style="fill-rule:evenodd;"
points="73425,56368
74074,56368
74074,57116
73425,57116
73425,56368
" /> 
<polyline style="fill-rule:evenodd;"
points="80925,55383
81574,55383
81574,56131
80925,56131
80925,55383
" /> 
<polyline style="fill-rule:evenodd;"
points="80925,56368
81574,56368
81574,57116
80925,57116
80925,56368
" /> 
</g>
<g style="fill:#840000; fill-opacity:1.0; 
stroke:#840000; stroke-width:1141.73; stroke-opacity:1; 
stroke-linecap:round; stroke-linejoin:round;">
</g>
<g style="fill:#840000; fill-opacity:0.0; 
stroke:#840000; stroke-width:1141.73; stroke-opacity:1; 
stroke-linecap:round; stroke-linejoin:round;">
<path d="M53819 23425
L53499 23999
" />
<path d="M55999 23000
L55984 23228
" />
<path d="M61319 23425
L60999 23999
" />
<path d="M63499 23000
L63484 23228
" />
<path d="M68819 23425
L68499 23999
" />
<path d="M70999 23000
L70984 23228
" />
<path d="M76319 23425
L75999 23999
" />
<path d="M78499 23000
L78484 23228
" />
<path d="M53819 30925
L53499 31499
" />
<path d="M55999 30500
L55984 30728
" />
<path d="M61319 30925
L60999 31499
" />
<path d="M63499 30500
L63484 30728
" />
<path d="M68819 30925
L68499 31499
" />
<path d="M70999 30500
L70984 30728
" />
<path d="M76319 30925
L75999 31499
" />
<path d="M78499 30500
L78484 30728
" />
<path d="M53819 38425
L53499 38999
" />
<path d="M55999 38000
L55984 38228
" />
<path d="M61319 38425
L60999 38999
" />
<path d="M63499 38000
L63484 38228
" />
<path d="M68819 38425
L68499 38999
" />
<path d="M70999 38000
L70984 38228
" />
<path d="M76319 38425
L75999 38999
" />
<path d="M78499 38000
L78484 38228
" />
<path d="M53819 45925
L53499 46499
" />
<path d="M55999 45500
L55984 45728
" />
<path d="M61319 45925
L60999 46499
" />
<path d="M63499 45500
L63484 45728
" />
<path d="M68819 45925
L68499 46499
" />
<path d="M70999 45500
L70984 45728
" />
<path d="M76319 45925
L75999 46499
" />
<path d="M78499 45500
L78484 45728
" />
<path d="M53819 53425
L53499 53999
" />
<path d="M55999 53000
L55984 53228
" />
<path d="M61319 53425
L60999 53999
" />
<path d="M63499 53000
L63484 53228
" />
<path d="M68819 53425
L68499 53999
" />
<path d="M70999 53000
L70984 53228
" />
<path d="M76319 53425
L75999 53999
" />
<path d="M78499 53000
L78484 53228
" />
</g>
<g style="fill:#840000; fill-opacity:0.0; 
stroke:#840000; stroke-width:0; stroke-opacity:1; 
stroke-linecap:round; stroke-linejoin:round;">
</g>
<g style="fill:#840000; fill-opacity:1.0; 
stroke:#840000; stroke-width:0; stroke-opacity:1; 
stroke-linecap:round; stroke-linejoin:round;">
<polyline style="fill-rule:evenodd;"
points="53581,27195
53581,26644
54389,26644
54389,27195
53581,27195
" /> 
<polyline style="fill-rule:evenodd;"
points="55610,27195
55610,26644
56418,26644
56418,27195
55610,27195
" /> 
<polyline style="fill-rule:evenodd;"
points="55610,28455
55610,27904
56418,27904
56418,28455
55610,28455
" /> 
<polyline style="fill-rule:evenodd;"
points="53581,28455
53581,27904
54389,27904
54389,28455
53581,28455
" /> 
<polyline style="fill-rule:evenodd;"
points="61081,27195
61081,26644
61889,26644
61889,27195
61081,27195
" /> 
<polyline style="fill-rule:evenodd;"
points="63110,27195
63110,26644
63918,26644
63918,27195
63110,27195
" /> 
<polyline style="fill-rule:evenodd;"
points="63110,28455
63110,27904
63918,27904
63918,28455
63110,28455
" /> 
<polyline style="fill-rule:evenodd;"
points="61081,28455
61081,27904
61889,27904
61889,28455
61081,28455
" /> 
<polyline style="fill-rule:evenodd;"
points="68581,27195
68581,26644
69389,26644
69389,27195
68581,27195
" /> 
<polyline style="fill-rule:evenodd;"
points="70610,27195
70610,26644
71418,26644
71418,27195
70610,27195
" /> 
<polyline style="fill-rule:evenodd;"
points="70610,28455
70610,27904
71418,27904
71418,28455
70610,28455
" /> 
<polyline style="fill-rule:evenodd;"
points="68581,28455
68581,27904
69389,27904
69389,28455
68581,28455
" /> 
<polyline style="fill-rule:evenodd;"
points="76081,27195
76081,26644
76889,26644
76889,27195
76081,27195
" /> 
<polyline style="fill-rule:evenodd;"
points="78110,27195
78110,26644
78918,26644
78918,27195
78110,27195
" /> 
<polyline style="fill-rule:evenodd;"
points="78110,28455
78110,27904
78918,27904
78918,28455
78110,28455
" /> 
<polyline style="fill-rule:evenodd;"
points="76081,28455
76081,27904
76889,27904
76889,28455
76081,28455
" /> 
<polyline style="fill-rule:evenodd;"
points="53581,34695
53581,34144
54389,34144
54389,34695
53581,34695
" /> 
<polyline style="fill-rule:evenodd;"
points="55610,34695
55610,34144
56418,34144
56418,34695
55610,34695
" /> 
<polyline style="fill-rule:evenodd;"
points="55610,35955
55610,35404
56418,35404
56418,35955
55610,35955
" /> 
<polyline style="fill-rule:evenodd;"
points="53581,35955
53581,35404
54389,35404
54389,35955
53581,35955
" /> 
<polyline style="fill-rule:evenodd;"
points="61081,34695
61081,34144
61889,34144
61889,34695
61081,34695
" /> 
<polyline style="fill-rule:evenodd;"
points="63110,34695
63110,34144
63918,34144
63918,34695
63110,34695
" /> 
<polyline style="fill-rule:evenodd;"
points="63110,35955
63110,35404
63918,35404
63918,35955
63110,35955
" /> 
<polyline style="fill-rule:evenodd;"
points="61081,35955
61081,35404
61889,35404
61889,35955
61081,35955
" /> 
<polyline style="fill-rule:evenodd;"
points="68581,34695
68581,34144
69389,34144
69389,34695
68581,34695
" /> 
<polyline style="fill-rule:evenodd;"
points="70610,34695
70610,34144
71418,34144
71418,34695
70610,34695
" /> 
<polyline style="fill-rule:evenodd;"
points="70610,35955
70610,35404
71418,35404
71418,35955
70610,35955
" /> 
<polyline style="fill-rule:evenodd;"
points="68581,35955
68581,35404
69389,35404
69389,35955
68581,35955
" /> 
<polyline style="fill-rule:evenodd;"
points="76081,34695
76081,34144
76889,34144
76889,34695
76081,34695
" /> 
<polyline style="fill-rule:evenodd;"
points="78110,34695
78110,34144
78918,34144
78918,34695
78110,34695
" /> 
<polyline style="fill-rule:evenodd;"
points="78110,35955
78110,35404
78918,35404
78918,35955
78110,35955
" /> 
<polyline style="fill-rule:evenodd;"
points="76081,35955
76081,35404
76889,35404
76889,35955
76081,35955
" /> 
<polyline style="fill-rule:evenodd;"
points="53581,42145
53581,41594
54389,41594
54389,42145
53581,42145
" /> 
<polyline style="fill-rule:evenodd;"
points="55610,42145
55610,41594
56418,41594
56418,42145
55610,42145
" /> 
<polyline style="fill-rule:evenodd;"
points="55610,43405
55610,42854
56418,42854
56418,43405
55610,43405
" /> 
<polyline style="fill-rule:evenodd;"
points="53581,43405
53581,42854
54389,42854
54389,43405
53581,43405
" /> 
<polyline style="fill-rule:evenodd;"
points="61081,42145
61081,41594
61889,41594
61889,42145
61081,42145
" /> 
<polyline style="fill-rule:evenodd;"
points="63110,42145
63110,41594
63918,41594
63918,42145
63110,42145
" /> 
<polyline style="fill-rule:evenodd;"
points="63110,43405
63110,42854
63918,42854
63918,43405
63110,43405
" /> 
<polyline style="fill-rule:evenodd;"
points="61081,43405
61081,42854
61889,42854
61889,43405
61081,43405
" /> 
<polyline style="fill-rule:evenodd;"
points="68581,42145
68581,41594
69389,41594
69389,42145
68581,42145
" /> 
<polyline style="fill-rule:evenodd;"
points="70610,42145
70610,41594
71418,41594
71418,42145
70610,42145
" /> 
<polyline style="fill-rule:evenodd;"
points="70610,43405
70610,42854
71418,42854
71418,43405
70610,43405
" /> 
<polyline style="fill-rule:evenodd;"
points="68581,43405
68581,42854
69389,42854
69389,43405
68581,43405
" /> 
<polyline style="fill-rule:evenodd;"
points="76131,42195
76131,41644
76939,41644
76939,42195
76131,42195
" /> 
<polyline style="fill-rule:evenodd;"
points="78160,42195
78160,41644
78968,41644
78968,42195
78160,42195
" /> 
<polyline style="fill-rule:evenodd;"
points="78160,43455
78160,42904
78968,42904
78968,43455
78160,43455
" /> 
<polyline style="fill-rule:evenodd;"
points="76131,43455
76131,42904
76939,42904
76939,43455
76131,43455
" /> 
<polyline style="fill-rule:evenodd;"
points="53581,49645
53581,49094
54389,49094
54389,49645
53581,49645
" /> 
<polyline style="fill-rule:evenodd;"
points="55610,49645
55610,49094
56418,49094
56418,49645
55610,49645
" /> 
<polyline style="fill-rule:evenodd;"
points="55610,50905
55610,50354
56418,50354
56418,50905
55610,50905
" /> 
<polyline style="fill-rule:evenodd;"
points="53581,50905
53581,50354
54389,50354
54389,50905
53581,50905
" /> 
<polyline style="fill-rule:evenodd;"
points="61081,49645
61081,49094
61889,49094
61889,49645
61081,49645
" /> 
<polyline style="fill-rule:evenodd;"
points="63110,49645
63110,49094
63918,49094
63918,49645
63110,49645
" /> 
<polyline style="fill-rule:evenodd;"
points="63110,50905
63110,50354
63918,50354
63918,50905
63110,50905
" /> 
<polyline style="fill-rule:evenodd;"
points="61081,50905
61081,50354
61889,50354
61889,50905
61081,50905
" /> 
<polyline style="fill-rule:evenodd;"
points="68581,49695
68581,49144
69389,49144
69389,49695
68581,49695
" /> 
<polyline style="fill-rule:evenodd;"
points="70610,49695
70610,49144
71418,49144
71418,49695
70610,49695
" /> 
<polyline style="fill-rule:evenodd;"
points="70610,50955
70610,50404
71418,50404
71418,50955
70610,50955
" /> 
<polyline style="fill-rule:evenodd;"
points="68581,50955
68581,50404
69389,50404
69389,50955
68581,50955
" /> 
<polyline style="fill-rule:evenodd;"
points="76081,49695
76081,49144
76889,49144
76889,49695
76081,49695
" /> 
<polyline style="fill-rule:evenodd;"
points="78110,49695
78110,49144
78918,49144
78918,49695
78110,49695
" /> 
<polyline style="fill-rule:evenodd;"
points="78110,50955
78110,50404
78918,50404
78918,50955
78110,50955
" /> 
<polyline style="fill-rule:evenodd;"
points="76081,50955
76081,50404
76889,50404
76889,50955
76081,50955
" /> 
<polyline style="fill-rule:evenodd;"
points="53581,57145
53581,56594
54389,56594
54389,57145
53581,57145
" /> 
<polyline style="fill-rule:evenodd;"
points="55610,57145
55610,56594
56418,56594
56418,57145
55610,57145
" /> 
<polyline style="fill-rule:evenodd;"
points="55610,58405
55610,57854
56418,57854
56418,58405
55610,58405
" /> 
<polyline style="fill-rule:evenodd;"
points="53581,58405
53581,57854
54389,57854
54389,58405
53581,58405
" /> 
<polyline style="fill-rule:evenodd;"
points="61081,57145
61081,56594
61889,56594
61889,57145
61081,57145
" /> 
<polyline style="fill-rule:evenodd;"
points="63110,57145
63110,56594
63918,56594
63918,57145
63110,57145
" /> 
<polyline style="fill-rule:evenodd;"
points="63110,58405
63110,57854
63918,57854
63918,58405
63110,58405
" /> 
<polyline style="fill-rule:evenodd;"
points="61081,58405
61081,57854
61889,57854
61889,58405
61081,58405
" /> 
<polyline style="fill-rule:evenodd;"
points="68581,57195
68581,56644
69389,56644
69389,57195
68581,57195
" /> 
<polyline style="fill-rule:evenodd;"
points="70610,57195
70610,56644
71418,56644
71418,57195
70610,57195
" /> 
<polyline style="fill-rule:evenodd;"
points="70610,58455
70610,57904
71418,57904
71418,58455
70610,58455
" /> 
<polyline style="fill-rule:evenodd;"
points="68581,58455
68581,57904
69389,57904
69389,58455
68581,58455
" /> 
<polyline style="fill-rule:evenodd;"
points="76081,57195
76081,56644
76889,56644
76889,57195
76081,57195
" /> 
<polyline style="fill-rule:evenodd;"
points="78110,57195
78110,56644
78918,56644
78918,57195
78110,57195
" /> 
<polyline style="fill-rule:evenodd;"
points="78110,58455
78110,57904
78918,57904
78918,58455
78110,58455
" /> 
<polyline style="fill-rule:evenodd;"
points="76081,58455
76081,57904
76889,57904
76889,58455
76081,58455
" /> 
</g> 
</svg>
